<?xml version="1.0" encoding="UTF-8"?>
<svg width="1200pt" height="1200pt" version="1.1" viewBox="0 0 1200 1200" xmlns="http://www.w3.org/2000/svg">
 <defs>
  <clipPath id="d">
   <path d="m838 577h139.86v46h-139.86z"/>
  </clipPath>
  <clipPath id="c">
   <path d="m222.14 577h139.86v46h-139.86z"/>
  </clipPath>
  <clipPath id="b">
   <path d="m577 838h46v139.86h-46z"/>
  </clipPath>
  <clipPath id="a">
   <path d="m577 222.14h46v139.86h-46z"/>
  </clipPath>
 </defs>
 <rect width="1200" height="1200" fill="#676767"/>
 <g clip-path="url(#d)">
  <path d="m860.19 622.23c-28.766 0-28.766-44.453 0-44.453h96.754c28.766 0 28.766 44.453 0 44.453z" fill="#fff"/>
 </g>
 <g clip-path="url(#c)">
  <path d="m243.06 622.23c-28.766 0-28.766-44.453 0-44.453h96.754c28.766 0 28.766 44.453 0 44.453z" fill="#fff"/>
 </g>
 <path d="m768.66 800.04c-20.918-20.918 10.461-52.297 31.379-31.379l67.988 67.988c18.305 20.918-10.461 49.684-31.379 31.379z" fill="#fff"/>
 <path d="m331.97 363.35c-20.918-20.918 10.461-52.297 31.379-31.379l67.988 67.988c20.918 20.918-10.461 52.297-31.379 31.379z" fill="#fff"/>
 <g clip-path="url(#b)">
  <path d="m577.77 860.19c0-28.766 44.453-28.766 44.453 0v96.754c0 28.766-44.453 28.766-44.453 0z" fill="#fff"/>
 </g>
 <g clip-path="url(#a)">
  <path d="m577.77 243.06c0-28.766 44.453-28.766 44.453 0v96.754c0 28.766-44.453 28.766-44.453 0z" fill="#fff"/>
 </g>
 <path d="m800.04 431.34c-20.918 20.918-52.297-10.461-31.379-31.379l67.988-67.988c20.918-20.918 49.684 10.461 31.379 31.379z" fill="#fff"/>
 <path d="m363.35 868.03c-20.918 18.305-52.297-10.461-31.379-31.379l67.988-67.988c20.918-20.918 52.297 10.461 31.379 31.379z" fill="#fff"/>
 <path d="m752.98 441.8c86.293 83.676 88.906 219.65 7.8438 308.56-83.676 91.523-230.11 91.523-316.41 5.2305-86.293-86.293-86.293-224.88-2.6133-311.18 86.293-86.293 224.88-86.293 311.18-2.6133zm-28.766 26.148c70.602 67.988 75.832 180.43 10.461 251.03-70.602 78.449-190.89 81.062-264.11 7.8438-67.988-70.602-67.988-183.05 0-253.65s183.05-70.602 253.65-5.2305z" fill="#fff" fill-rule="evenodd"/>
</svg>
