<?xml version="1.0" encoding="UTF-8"?>
<svg width="1200pt" height="1200pt" version="1.1" viewBox="0 0 1200 1200" xmlns="http://www.w3.org/2000/svg">
 <g>
  <rect width="1200" height="1200" fill="#676767"/>
  <path d="m946.37 521.28h-62.977c-8.6914 0-15.742 7.0547-15.742 15.746 0 8.6875 7.0508 15.742 15.742 15.742h62.977c8.6914 0 15.742-7.0547 15.742-15.742 0-8.6914-7.0508-15.746-15.742-15.746z" fill="#fff" fill-rule="evenodd"/>
  <path d="m900.53 381.69-54.539 31.484c-7.5273 4.3477-10.109 13.98-5.7656 21.508 4.3477 7.5273 13.98 10.109 21.508 5.7617l54.539-31.484c7.5273-4.3477 10.109-13.98 5.7617-21.508-4.3438-7.5273-13.98-10.109-21.504-5.7617z" fill="#fff" fill-rule="evenodd"/>
  <path d="m791.04 283.73-31.488 54.539c-4.3438 7.5234-1.7617 17.16 5.7617 21.504 7.5273 4.3477 17.164 1.7656 21.508-5.7617l31.488-54.539c4.3477-7.5273 1.7656-17.16-5.7617-21.508-7.5273-4.3438-17.16-1.7617-21.508 5.7656z" fill="#fff" fill-rule="evenodd"/>
  <path d="m647.23 253.63v62.977c0 8.6914 7.0547 15.742 15.742 15.742 8.6914 0 15.746-7.0508 15.746-15.742v-62.977c0-8.6914-7.0547-15.746-15.746-15.746-8.6875 0-15.742 7.0547-15.742 15.746z" fill="#fff" fill-rule="evenodd"/>
  <path d="m507.64 299.48 31.488 54.539c4.3477 7.5273 13.98 10.109 21.508 5.7617 7.5273-4.3438 10.109-13.98 5.7617-21.504l-31.488-54.539c-4.3438-7.5273-13.98-10.109-21.504-5.7656-7.5273 4.3477-10.109 13.98-5.7656 21.508z" fill="#fff" fill-rule="evenodd"/>
  <path d="m409.68 408.97 54.539 31.488c7.5273 4.3438 17.164 1.7617 21.508-5.7617 4.3477-7.5273 1.7656-17.164-5.7617-21.508l-54.539-31.488c-7.5273-4.3438-17.16-1.7656-21.508 5.7617-4.3438 7.5273-1.7617 17.164 5.7617 21.508z" fill="#fff" fill-rule="evenodd"/>
  <path d="m379.59 552.77h62.977c8.6875 0 15.742-7.0547 15.742-15.742 0-8.6914-7.0547-15.746-15.742-15.746h-62.977c-8.6914 0-15.746 7.0547-15.746 15.746 0 8.6875 7.0547 15.742 15.746 15.742z" fill="#fff" fill-rule="evenodd"/>
  <path d="m916.28 665.09-54.539-31.488c-7.5273-4.3477-17.164-1.7656-21.508 5.7617-4.3438 7.5273-1.7656 17.16 5.7617 21.508l54.539 31.488c7.5273 4.3438 17.164 1.7617 21.508-5.7656 4.3438-7.5234 1.7617-17.16-5.7617-21.504z" fill="#fff" fill-rule="evenodd"/>
  <path d="m491.05 557.96c-86.246 19.82-151.74 94.195-158.18 184.79-23.598 3.2891-45.656 14.184-62.707 31.219-20.672 20.672-32.277 48.695-32.277 77.934s11.621 57.262 32.277 77.934c20.672 20.672 48.695 32.273 77.934 32.273h503.81c29.238 0 57.262-11.602 77.934-32.273 20.656-20.672 32.273-48.695 32.273-77.934s-11.617-57.262-32.273-77.934c-17.16-17.145-39.391-28.07-63.164-31.281-5.668-42.273-35.348-77.004-74.863-89.98 27.566-30.684 44.352-71.238 44.352-115.68 0-95.582-77.605-173.19-173.19-173.19-95.582 0-173.18 77.605-173.18 173.19 0 7.082 0.42578 14.074 1.2617 20.938zm345.11 199.48c0-43.453-35.27-78.719-78.723-78.719-15.098 0-29.219 4.25-41.203 11.648-3.8086 2.3477-8.4531 2.9609-12.734 1.6875-4.3008-1.2773-7.8555-4.3164-9.7617-8.3789-27.727-58.738-87.508-99.422-156.71-99.422-95.582 0-173.19 77.602-173.19 173.18 0 8.6914-7.0508 15.746-15.742 15.746-20.879 0-40.902 8.2969-55.672 23.047-14.754 14.77-23.051 34.797-23.051 55.672s8.2969 40.902 23.051 55.672c14.77 14.75 34.793 23.047 55.672 23.047h503.81c20.875 0 40.902-8.2969 55.672-23.047 14.75-14.77 23.047-34.797 23.047-55.672s-8.2969-40.902-23.047-55.672c-14.77-14.75-34.797-23.047-55.672-23.047-8.6914 0-15.742-7.0547-15.742-15.746zm-84.344-110.07c32.23-25.992 52.855-65.777 52.855-110.35 0-78.203-63.496-141.7-141.7-141.7-78.199 0-141.7 63.496-141.7 141.7 0 5.4922 0.31641 10.926 0.92969 16.277 4.8945-0.36328 9.8398-0.53516 14.816-0.53516 75.996 0 142.37 41.5 177.67 103.08 11.527-4.8672 24.027-7.8125 37.125-8.4727z" fill="#fff" fill-rule="evenodd"/>
 </g>
</svg>
