<?xml version="1.0" encoding="UTF-8"?>
<svg width="1200pt" height="1200pt" version="1.1" viewBox="0 0 1200 1200" xmlns="http://www.w3.org/2000/svg">
 <defs>
  <clipPath id="a">
   <path d="m222.14 404h755.71v392h-755.71z"/>
  </clipPath>
 </defs>
 <rect width="1200" height="1200" fill="#676767"/>
 <g clip-path="url(#a)">
  <path d="m814.86 718.55c0 7.4102-2.4688 14.816-4.9375 22.227-12.348 34.574-46.922 56.801-86.438 54.332h-392.68c-39.516 2.4688-74.09-19.758-93.848-51.863-19.758-32.105-19.758-74.09 0-106.2 19.758-34.574 54.332-54.332 93.848-54.332-17.289-37.043 32.105-69.148 61.742-39.516 0-44.453 24.695-83.969 66.68-103.73 39.516-17.289 86.438-12.348 121.01 17.289 4.9375 4.9375 12.348 12.348 17.289 19.758-19.758 4.9375-34.574 22.227-34.574 41.984-29.637 4.9375-56.801 22.227-74.09 49.395-17.289 32.105-17.289 69.148 0 101.25 19.758 32.105 54.332 51.863 88.906 49.395zm51.863-143.24c27.168-17.289 61.742-14.816 83.969 4.9375 24.695 17.289 34.574 51.863 22.227 79.027-9.8789 29.637-39.516 49.395-69.148 46.922h-326c-29.637 0-59.273-17.289-76.559-44.453-14.816-27.168-14.816-59.273 0-86.438 17.289-27.168 46.922-44.453 76.559-44.453-12.348-32.105 29.637-59.273 51.863-32.105 0-37.043 22.227-69.148 54.332-83.969 32.105-17.289 71.621-12.348 98.785 12.348 29.637 22.227 39.516 61.742 32.105 96.316 7.4102-12.348 22.227-17.289 37.043-14.816 14.816 2.4688 27.168 14.816 29.637 27.168 2.4688 14.816-2.4688 29.637-14.816 39.516z" fill="#fff" fill-rule="evenodd"/>
 </g>
</svg>
