<?xml version="1.0" encoding="utf-8"?>
<svg viewBox="0 0 1200 1200" width="1200pt" height="1200pt" xmlns="http://www.w3.org/2000/svg">
  <rect width="1200" height="1200" fill="#676767"/>
  <path d="M 431.48 712.6 C 428.457 708.065 423.921 705.799 418.632 705.799 C 413.343 705.799 408.808 708.065 405.784 712.6 L 366.487 771.545 C 349.862 795.729 353.639 828.979 374.046 850.139 C 386.136 862.229 401.253 868.276 417.878 868.276 C 434.503 868.276 450.374 861.475 461.71 850.139 C 482.87 828.979 485.894 796.483 469.268 771.545 L 431.48 712.6 Z M 441.304 828.22 C 435.257 834.267 426.945 837.29 418.632 837.29 C 410.319 837.29 402.007 834.267 395.96 828.22 C 385.382 817.642 383.87 800.259 392.183 788.165 L 418.632 748.11 L 445.081 788.165 C 453.397 800.259 451.886 817.642 441.304 828.22 L 441.304 828.22 Z M 794.224 712.6 C 791.201 708.065 786.666 705.799 781.376 705.799 C 776.087 705.799 771.552 708.065 768.528 712.6 L 729.231 771.545 C 712.606 795.729 716.383 828.979 736.79 850.139 C 748.88 862.229 763.997 868.276 780.622 868.276 C 797.247 868.276 813.118 861.475 824.454 850.139 C 845.614 828.979 848.638 796.483 832.012 771.545 L 794.224 712.6 Z M 804.048 828.22 C 791.958 840.31 771.552 840.31 758.704 828.22 C 748.126 817.642 746.614 800.259 754.927 788.165 L 781.376 748.11 L 807.825 788.165 C 816.142 800.259 814.63 817.642 804.048 828.22 L 804.048 828.22 Z M 769.286 403.51 C 751.903 324.916 681.622 267.48 600.006 267.48 C 518.39 267.48 448.106 324.914 430.726 403.51 C 361.203 405.022 305.276 462.455 305.276 531.98 C 305.276 603.019 362.71 660.45 433.746 660.45 L 766.266 660.45 C 837.305 660.45 894.736 603.016 894.736 531.98 C 894.732 462.453 838.81 405.02 769.286 403.51 L 769.286 403.51 Z M 766.263 630.22 L 433.753 630.22 C 379.343 630.22 335.511 586.388 335.511 531.978 C 335.511 477.568 379.343 433.736 433.753 433.736 L 442.823 433.736 C 450.382 433.736 456.425 428.447 457.936 420.888 C 467.757 350.607 528.971 297.708 600.006 297.708 C 671.045 297.708 732.256 350.606 742.076 420.888 C 742.83 428.447 749.635 433.736 757.189 433.736 L 766.26 433.74 C 820.67 433.74 864.502 477.572 864.502 531.982 C 864.502 586.392 820.674 630.224 766.26 630.224 L 766.263 630.22 Z" fill="#fff"/>
</svg>