<?xml version="1.0" encoding="UTF-8"?>
<svg width="1200pt" height="1200pt" version="1.1" viewBox="0 0 1200 1200" xmlns="http://www.w3.org/2000/svg">
 <g>
  <rect width="1200" height="1200" fill="#676767"/>
  <path d="m431.48 712.6c-3.0234-4.5352-7.5586-6.8008-12.848-6.8008-5.2891 0-9.8242 2.2656-12.848 6.8008l-39.297 58.945c-16.625 24.184-12.848 57.434 7.5586 78.594 12.09 12.09 27.207 18.137 43.832 18.137s32.496-6.8008 43.832-18.137c21.16-21.16 24.184-53.656 7.5586-78.594zm9.8242 115.62c-6.0469 6.0469-14.359 9.0703-22.672 9.0703s-16.625-3.0234-22.672-9.0703c-10.578-10.578-12.09-27.961-3.7773-40.055l26.449-40.055 26.449 40.055c8.3164 12.094 6.8047 29.477-3.7773 40.055zm352.92-115.62c-3.0234-4.5352-7.5586-6.8008-12.848-6.8008-5.2891 0-9.8242 2.2656-12.848 6.8008l-39.297 58.945c-16.625 24.184-12.848 57.434 7.5586 78.594 12.09 12.09 27.207 18.137 43.832 18.137s32.496-6.8008 43.832-18.137c21.16-21.16 24.184-53.656 7.5586-78.594zm9.8242 115.62c-12.09 12.09-32.496 12.09-45.344 0-10.578-10.578-12.09-27.961-3.7773-40.055l26.449-40.055 26.449 40.055c8.3164 12.094 6.8047 29.477-3.7773 40.055zm-34.762-424.71c-17.383-78.594-87.664-136.03-169.28-136.03s-151.9 57.434-169.28 136.03c-69.523 1.5117-125.45 58.945-125.45 128.47 0 71.039 57.434 128.47 128.47 128.47h332.52c71.039 0 128.47-57.434 128.47-128.47-0.003906-69.527-55.926-126.96-125.45-128.47zm-3.0234 226.71h-332.51c-54.41 0-98.242-43.832-98.242-98.242 0-54.41 43.832-98.242 98.242-98.242h9.0703c7.5586 0 13.602-5.2891 15.113-12.848 9.8203-70.281 71.035-123.18 142.07-123.18 71.039 0 132.25 52.898 142.07 123.18 0.75391 7.5586 7.5586 12.848 15.113 12.848l9.0703 0.003906c54.41 0 98.242 43.832 98.242 98.242 0 54.41-43.828 98.242-98.242 98.242zm-153.41 142.83c-3.0234-4.5352-7.5586-6.8008-12.848-6.8008s-9.8242 2.2656-12.848 6.8008l-39.297 58.945c-16.625 24.184-12.848 57.434 7.5586 78.594 12.09 12.09 27.207 18.137 43.832 18.137s32.496-6.8008 43.832-18.137c21.16-21.16 24.184-53.656 7.5586-78.594zm9.8242 115.62c-6.0469 6.0469-14.359 9.0703-22.672 9.0703s-16.625-3.0234-22.672-9.0703c-10.578-10.578-12.09-27.961-3.7773-40.055l26.449-40.055 26.449 40.055c8.3164 12.094 6.8047 29.477-3.7773 40.055z" fill="#fff"/>
 </g>
</svg>
