<?xml version="1.0" encoding="utf-8"?>
<svg viewBox="0 0 1200 1200" width="1200pt" height="1200pt" xmlns="http://www.w3.org/2000/svg">
  <rect width="1200" height="1200" fill="#676767"/>
  <path d="M 617.48 712.6 C 614.457 708.065 609.921 705.799 604.632 705.799 C 599.343 705.799 594.808 708.065 591.784 712.6 L 552.487 771.545 C 535.862 795.729 539.639 828.979 560.046 850.139 C 572.136 862.229 587.253 868.276 603.878 868.276 C 620.503 868.276 636.374 861.475 647.71 850.139 C 668.87 828.979 671.894 796.483 655.268 771.545 L 617.48 712.6 Z M 627.304 828.22 C 621.257 834.267 612.945 837.29 604.632 837.29 C 596.319 837.29 588.007 834.267 581.96 828.22 C 571.382 817.642 569.87 800.259 578.183 788.165 L 604.632 748.11 L 631.081 788.165 C 639.397 800.259 637.886 817.642 627.304 828.22 Z M 769.286 403.51 C 751.903 324.916 681.622 267.48 600.006 267.48 C 518.39 267.48 448.106 324.914 430.726 403.51 C 361.203 405.022 305.276 462.455 305.276 531.98 C 305.276 603.019 362.71 660.45 433.746 660.45 L 766.266 660.45 C 837.305 660.45 894.736 603.016 894.736 531.98 C 894.732 462.453 838.81 405.02 769.286 403.51 Z M 766.263 630.22 L 433.753 630.22 C 379.343 630.22 335.511 586.388 335.511 531.978 C 335.511 477.568 379.343 433.736 433.753 433.736 L 442.823 433.736 C 450.382 433.736 456.425 428.447 457.936 420.888 C 467.757 350.607 528.971 297.708 600.006 297.708 C 671.045 297.708 732.256 350.606 742.076 420.888 C 742.83 428.447 749.635 433.736 757.189 433.736 L 766.26 433.74 C 820.67 433.74 864.502 477.572 864.502 531.982 C 864.502 586.392 820.674 630.224 766.26 630.224 L 766.263 630.22 Z" fill="#fff"/>
</svg>