<?xml version="1.0" encoding="UTF-8"?>
<svg width="1200pt" height="1200pt" version="1.1" viewBox="0 0 1200 1200" xmlns="http://www.w3.org/2000/svg">
 <g>
  <rect width="1200" height="1200" fill="#676767"/>
  <path d="m403.86 537.19c8.9766 0 17.684 1.293 25.914 3.6719 22.965-53.98 76.496-91.844 138.89-91.844 76.699 0 140.04 57.246 149.61 131.36h36.16c39.039 0 70.984 31.945 70.984 70.984 0 39.039-31.945 71.008-70.984 71.008h-350.57c-51.148 0-92.59-41.465-92.59-92.59 0-51.148 41.465-92.59 92.59-92.59zm273.78 214.2h67.379l-29.902 51.805h52.168l-50.738 126.12c-1.5859 3.9883-5.7578 6.1875-9.9531 5.2617-4.1953-0.92969-7.0508-4.6719-6.8477-8.9766l3.9453-75.316h-50.309l24.258-98.871zm-283.98 0h67.379l-29.902 51.805h52.168l-50.738 126.12c-1.6094 3.9883-5.7578 6.1875-9.9766 5.2617-4.1953-0.92969-7.0508-4.6719-6.8242-8.9766l3.9219-75.316h-50.285l24.258-98.871zm141.99 0h67.379l-29.902 51.805h52.168l-50.738 126.12c-1.6094 3.9883-5.7812 6.1875-9.9766 5.2617-4.1953-0.92969-7.0508-4.6719-6.8242-8.9766l3.9219-75.316h-50.285l24.258-98.871zm-160.9-365.45c12.312 0 24.215 1.7695 35.457 5.0312 31.469-73.934 104.77-125.76 190.17-125.76 105.04 0 191.78 78.398 204.88 179.86h49.516c53.484 0 97.215 43.758 97.215 97.238 0 53.484-43.758 97.238-97.215 97.238h-1.0898c-5.8945-49.539-48.246-88.191-99.301-88.191h-12.516c-21.355-76.586-91.66-131.36-173.26-131.36-64.344 0-123.02 34.258-155.01 88.555-3.2422-0.25-6.5078-0.38672-9.7695-0.38672-57.812 0-106.21 40.355-118.55 94.426-23.078-22.965-37.34-54.754-37.34-89.848 0-70.031 56.77-126.8 126.8-126.8z" fill="#fff" fill-rule="evenodd"/>
 </g>
</svg>
