<?xml version="1.0" encoding="UTF-8"?>
<svg width="1200pt" height="1200pt" version="1.1" viewBox="0 0 1200 1200" xmlns="http://www.w3.org/2000/svg">
 <g>
  <rect width="1200" height="1200" fill="#676767"/>
  <path d="m436.35 391.8c35.277-42.602 88.555-69.738 148.18-69.738 90.484 0 166.34 62.484 186.84 146.64h37.84c77.062 0 140.13 63.051 140.13 140.13 0 77.062-63.051 140.13-140.13 140.13h-80.914l5.2617-9.7266c7.6172-14.078 7.2773-30.699-0.92969-44.461-8.1836-13.762-22.625-21.969-38.656-21.969h-64.977v-62.031c0-20.699-13.898-38.543-33.961-43.621-20.043-5.0781-40.762 4.0117-50.602 22.219l-78.012 144.17c-2.6523 4.8984-4.332 10.113-5.0547 15.418h-70.598c-77.062 0-140.13-63.051-140.13-140.13 0-73.027 56.609-133.47 128.12-139.59-0.70312 6.8906-1.043 13.898-1.043 20.949 0 30.719 6.7578 59.945 18.863 86.266 12.559 27.32 30.902 51.418 53.414 70.734 6.0742 5.1914 15.211 4.4883 20.406-1.5859 5.1914-6.0742 4.4883-15.211-1.5859-20.406-19.383-16.617-35.141-37.34-45.934-60.762-10.359-22.535-16.141-47.68-16.141-74.25 0-26.57 5.7812-51.715 16.141-74.25 3.875-8.4102 8.3867-16.48 13.469-24.121zm133.62 211.39-78.012 144.17c-2.7656 5.1016-2.6289 10.812 0.33984 15.781 2.9688 4.9648 7.9336 7.8008 13.715 7.8008h78.012c8.7969 0 15.984 7.1875 15.984 15.984v75.066c0 7.4141 4.875 13.672 12.062 15.484s14.441-1.3594 17.98-7.8906l78.012-144.17c2.7656-5.0781 2.6289-10.793-0.33984-15.781-2.9688-4.9883-7.9336-7.8008-13.715-7.8008h-78.012c-8.7969 0-15.984-7.1875-15.984-15.984v-75.066c0-7.4141-4.875-13.672-12.062-15.484s-14.441 1.3828-17.98 7.8906z" fill="#fff" fill-rule="evenodd"/>
 </g>
</svg>
