<?xml version="1.0" encoding="UTF-8"?>
<svg width="1200pt" height="1200pt" version="1.1" viewBox="0 0 1200 1200" xmlns="http://www.w3.org/2000/svg">
 <g>
  <rect width="1200" height="1200" fill="#676767"/>
  <path d="m727.54 657.89-238.21 288.59c-2.1914 2.5195-5.2578 3.9453-8.4336 3.9453-1.9727 0-3.832-0.54688-5.5859-1.5352-4.6016-2.7383-6.5703-8.4336-4.6016-13.473l79.844-201.09h-69.656c-3.7227 0-7.2305-1.9727-9.3086-5.1484-1.9727-3.1758-2.1914-7.1211-0.54688-10.516l54.215-112.92h133.07l-22.453 34.172h83.238c4.2734 0 8.1055 2.4102 9.8555 6.2422 1.8633 3.8359 1.3164 8.4336-1.4219 11.723z" fill="#fff"/>
  <path d="m914.5 485.16c0 56.188-42.824 96.82-104.16 98.789l-426.38-0.21875c-59.254-4.8203-98.461-44.465-98.461-98.57 0-59.91 48.738-108.65 108.65-108.65 1.3164 0 2.7383 0 4.0547 0.10938 13.574-45.449 55.961-77.43 104.15-77.43 5.1484 0 10.625 0.4375 16.102 1.3125 19.715-31.652 54.215-50.93 91.891-50.93 37.129 0 71.52 18.949 91.344 49.832 2.082-0.10938 4.2734-0.21875 6.4609-0.21875 47.973 0 90.355 32.09 104.16 77.543 56.953 3.2891 102.19 50.711 102.19 108.43z" fill="#fff"/>
 </g>
</svg>
